<svg width="351" height="79" viewBox="0 0 351 79" fill="none" xmlns="http://www.w3.org/2000/svg">
<g id="header-right">
<path id="bg" d="M351 79C351 79 288 79 206.5 79C114 70 0 22.5429 0 -1.20538C0 -1.20538 264.291 -1.20538 351 -1.20538C351 -1.20538 351 55.2518 351 79Z" fill="#0620AA"/>
<g id="user">
<ellipse id="user-bg" cx="296.5" cy="40.5" rx="30.5" ry="29.5" fill="white"/>
<g id="user-icon">
<path id="Vector" d="M296.5 28.8166C298.578 28.8166 300.263 30.54 300.263 32.6666C300.263 34.7933 298.578 36.5166 296.5 36.5166C294.422 36.5166 292.738 34.7933 292.738 32.6666C292.738 30.54 294.422 28.8166 296.5 28.8166ZM296.5 45.3166C301.821 45.3166 307.429 47.9933 307.429 49.1666V51.1833H285.571V49.1666C285.571 47.9933 291.179 45.3166 296.5 45.3166ZM296.5 25.3333C292.54 25.3333 289.333 28.615 289.333 32.6666C289.333 36.7183 292.54 40 296.5 40C300.46 40 303.667 36.7183 303.667 32.6666C303.667 28.615 300.46 25.3333 296.5 25.3333ZM296.5 41.8333C291.716 41.8333 282.167 44.29 282.167 49.1666V54.6666H310.833V49.1666C310.833 44.29 301.284 41.8333 296.5 41.8333Z" fill="#0620AA"/>
</g>
</g>
<g id="store-icon">
<path id="Vector_2" d="M177.042 51C174.521 51 172.481 52.8 172.481 55C172.481 57.2 174.521 59 177.042 59C179.562 59 181.625 57.2 181.625 55C181.625 52.8 179.562 51 177.042 51ZM163.292 19V23H167.875L176.125 38.18L173.031 43.08C172.665 43.64 172.458 44.3 172.458 45C172.458 47.2 174.521 49 177.042 49H204.542V45H178.004C177.683 45 177.431 44.78 177.431 44.5L177.5 44.26L179.562 41H196.635C198.354 41 199.867 40.18 200.646 38.94L208.85 25.96C209.033 25.68 209.125 25.34 209.125 25C209.125 23.9 208.094 23 206.833 23H172.94L170.785 19H163.292ZM199.958 51C197.437 51 195.398 52.8 195.398 55C195.398 57.2 197.437 59 199.958 59C202.479 59 204.542 57.2 204.542 55C204.542 52.8 202.479 51 199.958 51Z" fill="white"/>
</g>
</g>
</svg>
